<svg width="76" height="76" viewBox="0 0 76 76" fill="none" xmlns="http://www.w3.org/2000/svg">
<rect x="6.75" y="69.25" width="62.5" height="62.5" rx="31.25" transform="rotate(-90 6.75 69.25)" fill="#F1F1F1"/>
<rect x="6.75" y="69.25" width="62.5" height="62.5" rx="31.25" transform="rotate(-90 6.75 69.25)" stroke="url(#paint0_linear_5536_26742)" stroke-width="1.5"/>
<path opacity="0.8" d="M38.9031 28.5201L38.8731 28.5901L35.9731 35.3201H33.1231C32.4431 35.3201 31.8031 35.4501 31.2031 35.7101L32.9531 31.5301L32.9931 31.4401L33.0531 31.2801C33.0831 31.2101 33.1031 31.1501 33.1331 31.1001C34.4431 28.0701 35.9231 27.3801 38.9031 28.5201Z" fill="#004B4D"/>
<path d="M44.2888 35.5195C43.8388 35.3895 43.3687 35.3195 42.8787 35.3195H35.9688L38.8687 28.5895L38.8987 28.5195C39.0387 28.5695 39.1887 28.6395 39.3387 28.6895L41.5487 29.6195C42.7787 30.1295 43.6388 30.6595 44.1687 31.2995C44.2587 31.4195 44.3387 31.5295 44.4187 31.6595C44.5087 31.7995 44.5788 31.9395 44.6188 32.0895C44.6588 32.1795 44.6887 32.2595 44.7087 32.3495C44.9687 33.1995 44.8088 34.2295 44.2888 35.5195Z" fill="#004B4D"/>
<path opacity="0.4" d="M47.7622 40.2003V42.1503C47.7622 42.3503 47.7522 42.5503 47.7422 42.7403C47.5522 46.2403 45.6022 48.0003 41.9022 48.0003H34.1022C33.8522 48.0003 33.6222 47.9803 33.3922 47.9503C30.2122 47.7403 28.5122 46.0403 28.2922 42.8603C28.2622 42.6203 28.2422 42.3903 28.2422 42.1503V40.2003C28.2422 38.1903 29.4622 36.4603 31.2022 35.7103C31.8022 35.4503 32.4422 35.3203 33.1222 35.3203H42.8822C43.3722 35.3203 43.8422 35.3903 44.2922 35.5203C46.2922 36.1303 47.7622 37.9903 47.7622 40.2003Z" fill="#004B4D"/>
<path opacity="0.6" d="M32.9522 31.5303L31.2022 35.7103C29.4622 36.4603 28.2422 38.1903 28.2422 40.2003V37.2703C28.2422 34.4303 30.2622 32.0603 32.9522 31.5303Z" fill="#B4DCDD"/>
<path opacity="0.6" d="M47.7591 37.2701V40.2001C47.7591 37.9901 46.2891 36.1301 44.2891 35.5201C44.8091 34.2301 44.9691 33.2001 44.7091 32.3501C44.6891 32.2601 44.6591 32.1801 44.6191 32.0901C46.4891 33.0601 47.7591 35.0301 47.7591 37.2701Z" fill="#B4DCDD"/>
<circle cx="38" cy="38" r="37.25" transform="rotate(-90 38 38)" stroke="#D9D9D9" stroke-width="1.5"/>
<circle cx="38" cy="38" r="37.25" transform="rotate(-90 38 38)" stroke="url(#paint1_linear_5536_26742)" stroke-width="1.5"/>
<defs>
<linearGradient id="paint0_linear_5536_26742" x1="38" y1="70" x2="38" y2="134" gradientUnits="userSpaceOnUse">
<stop stop-color="#F6F6F6"/>
<stop offset="1" stop-color="#E6E6E6"/>
</linearGradient>
<linearGradient id="paint1_linear_5536_26742" x1="38" y1="0" x2="38" y2="76" gradientUnits="userSpaceOnUse">
<stop offset="0.487629" stop-color="#46FF2D" stop-opacity="0"/>
<stop offset="1" stop-color="#004B4D"/>
</linearGradient>
</defs>
</svg>
