<svg width="77" height="76" viewBox="0 0 77 76" fill="none" xmlns="http://www.w3.org/2000/svg">
<rect x="7.73828" y="69.25" width="62.5" height="62.5" rx="31.25" transform="rotate(-90 7.73828 69.25)" fill="#F1F1F1"/>
<rect x="7.73828" y="69.25" width="62.5" height="62.5" rx="31.25" transform="rotate(-90 7.73828 69.25)" stroke="url(#paint0_linear_4079_10985)" stroke-width="1.5"/>
<path d="M44.5173 33.77C44.4473 33.76 44.3773 33.76 44.3073 33.77C42.7573 33.72 41.5273 32.45 41.5273 30.89C41.5273 29.3 42.8173 28 44.4173 28C46.0073 28 47.3073 29.29 47.3073 30.89C47.2973 32.45 46.0673 33.72 44.5173 33.77Z" fill="#007AFF"/>
<path d="M47.7759 40.7004C46.6559 41.4504 45.0859 41.7304 43.6359 41.5404C44.0159 40.7204 44.2159 39.8104 44.2259 38.8504C44.2259 37.8504 44.0059 36.9004 43.5859 36.0704C45.0659 35.8704 46.6359 36.1504 47.7659 36.9004C49.3459 37.9404 49.3459 39.6504 47.7759 40.7004Z" fill="#007AFF"/>
<path d="M33.4306 33.77C33.5006 33.76 33.5706 33.76 33.6406 33.77C35.1906 33.72 36.4206 32.45 36.4206 30.89C36.4206 29.3 35.1306 28 33.5306 28C31.9406 28 30.6406 29.29 30.6406 30.89C30.6506 32.45 31.8806 33.72 33.4306 33.77Z" fill="#FF9500"/>
<path d="M33.5394 38.8496C33.5394 39.8196 33.7494 40.7396 34.1294 41.5696C32.7194 41.7196 31.2494 41.4196 30.1694 40.7096C28.5894 39.6596 28.5894 37.9496 30.1694 36.8996C31.2394 36.1796 32.7494 35.8896 34.1694 36.0496C33.7594 36.8896 33.5394 37.8396 33.5394 38.8496Z" fill="#FF9500"/>
<path d="M39.1091 41.87C39.0291 41.86 38.9391 41.86 38.8491 41.87C37.0091 41.81 35.5391 40.3 35.5391 38.44C35.5391 36.54 37.0691 35 38.9791 35C40.8791 35 42.4191 36.54 42.4191 38.44C42.4191 40.3 40.9591 41.81 39.1091 41.87Z" fill="#004B4D"/>
<path d="M35.8591 43.9396C34.3491 44.9496 34.3491 46.6096 35.8591 47.6096C37.5791 48.7596 40.3991 48.7596 42.1191 47.6096C43.6291 46.5996 43.6291 44.9396 42.1191 43.9396C40.4091 42.7896 37.5891 42.7896 35.8591 43.9396Z" fill="#004B4D"/>
<circle cx="38.9883" cy="38" r="37.25" transform="rotate(-90 38.9883 38)" stroke="#D9D9D9" stroke-width="1.5"/>
<circle cx="38.9883" cy="38" r="37.25" transform="rotate(-90 38.9883 38)" stroke="url(#paint1_linear_4079_10985)" stroke-width="1.5"/>
<defs>
<linearGradient id="paint0_linear_4079_10985" x1="38.9883" y1="70" x2="38.9883" y2="134" gradientUnits="userSpaceOnUse">
<stop stop-color="#F6F6F6"/>
<stop offset="1" stop-color="#E6E6E6"/>
</linearGradient>
<linearGradient id="paint1_linear_4079_10985" x1="38.9883" y1="0" x2="38.9883" y2="76" gradientUnits="userSpaceOnUse">
<stop offset="0.487629" stop-color="#46FF2D" stop-opacity="0"/>
<stop offset="1" stop-color="#004B4D"/>
</linearGradient>
</defs>
</svg>
