<svg width="19" height="23" viewBox="0 0 19 23" fill="none" xmlns="http://www.w3.org/2000/svg">
<path d="M15.2661 12.303C15.2877 10.622 16.1905 9.03142 17.6226 8.15096C16.7192 6.86063 15.2059 6.04253 13.6315 5.99328C11.9522 5.81702 10.3243 6.99811 9.46856 6.99811C8.59629 6.99811 7.27879 6.01078 5.86006 6.03997C4.01081 6.09971 2.28684 7.15109 1.38714 8.76783C-0.546857 12.1163 0.895732 17.0373 2.74834 19.7439C3.67524 21.0693 4.75852 22.5497 6.17597 22.4972C7.56303 22.4397 8.08107 21.6127 9.75537 21.6127C11.4141 21.6127 11.9002 22.4972 13.3464 22.4638C14.8348 22.4397 15.7725 21.1326 16.6669 19.7947C17.3329 18.8503 17.8453 17.8066 18.1853 16.7022C16.4362 15.9624 15.2681 14.2021 15.2661 12.303Z" fill="white"/>
<path d="M12.5344 4.21328C13.3459 3.23907 13.7457 1.98689 13.6489 0.722656C12.4091 0.852877 11.2638 1.44544 10.4413 2.38227C9.63705 3.2976 9.2185 4.52774 9.29763 5.74366C10.5379 5.75643 11.7572 5.17993 12.5344 4.21328Z" fill="white"/>
</svg>
