<svg width="174" height="40" viewBox="0 0 174 40" fill="none" xmlns="http://www.w3.org/2000/svg">
<rect x="0.5" y="0.5" width="173" height="39" rx="11.5" stroke="white"/>
<path d="M97.0267 19.2004V21.4914H95.5906V22.9938H97.0267V28.0988C97.0267 29.842 97.8152 30.5392 99.7991 30.5392C100.148 30.5392 100.48 30.4977 100.77 30.4479V28.9621C100.521 28.987 100.364 29.0036 100.09 29.0036C99.2015 29.0036 98.8113 28.5886 98.8113 27.6423V22.9938H100.77V21.4914H98.8113V19.2004H97.0267Z" fill="white"/>
<path d="M105.824 30.6638C108.464 30.6638 110.082 28.8957 110.082 25.9655C110.082 23.0519 108.456 21.2756 105.824 21.2756C103.185 21.2756 101.558 23.0519 101.558 25.9655C101.558 28.8957 103.176 30.6638 105.824 30.6638ZM105.824 29.0783C104.272 29.0783 103.4 27.9411 103.4 25.9655C103.4 24.0065 104.272 22.861 105.824 22.861C107.368 22.861 108.248 24.0065 108.248 25.9655C108.248 27.9328 107.368 29.0783 105.824 29.0783Z" fill="white"/>
<path d="M111.467 30.4894H113.252V25.152C113.252 23.882 114.207 23.027 115.56 23.027C115.875 23.027 116.406 23.0851 116.556 23.1349V21.3752C116.365 21.3254 116.024 21.3005 115.759 21.3005C114.58 21.3005 113.576 21.9479 113.318 22.8361H113.186V21.4499H111.467V30.4894Z" fill="white"/>
<path d="M120.987 22.7946C122.307 22.7946 123.17 23.716 123.212 25.1354H118.646C118.746 23.7243 119.667 22.7946 120.987 22.7946ZM123.203 28.049C122.871 28.7546 122.133 29.1447 121.053 29.1447C119.626 29.1447 118.704 28.1403 118.646 26.5549V26.4553H125.03V25.8327C125.03 22.9938 123.51 21.2756 120.995 21.2756C118.447 21.2756 116.828 23.11 116.828 25.9987C116.828 28.8874 118.414 30.6638 121.004 30.6638C123.071 30.6638 124.515 29.6677 124.922 28.049H123.203Z" fill="white"/>
<path d="M85.3231 27.1513C85.4607 29.371 87.3105 30.7906 90.0636 30.7906C93.006 30.7906 94.8472 29.3021 94.8472 26.9276C94.8472 25.0606 93.7975 24.0282 91.2509 23.4346L89.8829 23.099C88.2655 22.7205 87.6116 22.2129 87.6116 21.3267C87.6116 20.2082 88.6268 19.4769 90.1497 19.4769C91.595 19.4769 92.593 20.191 92.7737 21.3353H94.6493C94.5374 19.2446 92.6963 17.7734 90.1755 17.7734C87.4654 17.7734 85.6586 19.2446 85.6586 21.4557C85.6586 23.2797 86.6824 24.3637 88.9279 24.8885L90.5282 25.2757C92.1715 25.6629 92.8942 26.2307 92.8942 27.1771C92.8942 28.2783 91.7585 29.0785 90.2099 29.0785C88.5494 29.0785 87.3965 28.33 87.2331 27.1513H85.3231Z" fill="white"/>
<path d="M66.8357 21.3005C65.6072 21.3005 64.5447 21.9147 63.9969 22.944H63.8641V21.4499H62.1458V33.4943H63.9305V29.1198H64.0716C64.5447 30.0744 65.5657 30.6388 66.8523 30.6388C69.1351 30.6388 70.5877 28.8376 70.5877 25.9655C70.5877 23.0934 69.1351 21.3005 66.8357 21.3005ZM66.3294 29.0368C64.8353 29.0368 63.8973 27.8581 63.8973 25.9738C63.8973 24.0812 64.8353 22.9025 66.3377 22.9025C67.8484 22.9025 68.7532 24.0563 68.7532 25.9655C68.7532 27.883 67.8484 29.0368 66.3294 29.0368Z" fill="white"/>
<path d="M76.8325 21.3005C75.604 21.3005 74.5415 21.9147 73.9937 22.944H73.8609V21.4499H72.1426V33.4943H73.9273V29.1198H74.0684C74.5415 30.0744 75.5625 30.6388 76.8491 30.6388C79.1319 30.6388 80.5845 28.8376 80.5845 25.9655C80.5845 23.0934 79.1319 21.3005 76.8325 21.3005ZM76.3262 29.0368C74.8321 29.0368 73.8941 27.8581 73.8941 25.9738C73.8941 24.0812 74.8321 22.9025 76.3345 22.9025C77.8452 22.9025 78.75 24.0563 78.75 25.9655C78.75 27.883 77.8452 29.0368 76.3262 29.0368Z" fill="white"/>
<path d="M58.9438 30.4894H60.9914L56.509 18.0746H54.4356L49.9531 30.4894H51.9319L53.0762 27.1943H57.8081L58.9438 30.4894ZM55.3733 20.3287H55.5196L57.3177 25.5768H53.5666L55.3733 20.3287Z" fill="white"/>
<path d="M51.1562 8.71265V14.7017H53.3186C55.1033 14.7017 56.1367 13.6018 56.1367 11.6885C56.1367 9.8042 55.095 8.71265 53.3186 8.71265H51.1562ZM52.0859 9.55933H53.2148C54.4558 9.55933 55.1904 10.3479 55.1904 11.7009C55.1904 13.0747 54.4683 13.855 53.2148 13.855H52.0859V9.55933Z" fill="white"/>
<path d="M59.3018 14.7888C60.6216 14.7888 61.431 13.9048 61.431 12.4397C61.431 10.9829 60.6175 10.0947 59.3018 10.0947C57.982 10.0947 57.1685 10.9829 57.1685 12.4397C57.1685 13.9048 57.9778 14.7888 59.3018 14.7888ZM59.3018 13.9961C58.5257 13.9961 58.0899 13.4275 58.0899 12.4397C58.0899 11.4602 58.5257 10.8875 59.3018 10.8875C60.0738 10.8875 60.5137 11.4602 60.5137 12.4397C60.5137 13.4233 60.0738 13.9961 59.3018 13.9961Z" fill="white"/>
<path d="M68.3231 10.1819H67.4308L66.6256 13.6309H66.555L65.6253 10.1819H64.7704L63.8407 13.6309H63.7743L62.9649 10.1819H62.0602L63.3053 14.7017H64.2225L65.1522 11.373H65.2228L66.1566 14.7017H67.0821L68.3231 10.1819Z" fill="white"/>
<path d="M69.3507 14.7017H70.2431V12.0579C70.2431 11.3523 70.6623 10.9124 71.3222 10.9124C71.9821 10.9124 72.2975 11.2734 72.2975 11.9998V14.7017H73.1898V11.7756C73.1898 10.7007 72.6337 10.0947 71.6251 10.0947C70.9445 10.0947 70.4962 10.3977 70.2763 10.8999H70.2099V10.1819H69.3507V14.7017Z" fill="white"/>
<path d="M74.5952 14.7017H75.4875V8.41797H74.5952V14.7017Z" fill="white"/>
<path d="M78.8435 14.7888C80.1633 14.7888 80.9727 13.9048 80.9727 12.4397C80.9727 10.9829 80.1592 10.0947 78.8435 10.0947C77.5237 10.0947 76.7102 10.9829 76.7102 12.4397C76.7102 13.9048 77.5195 14.7888 78.8435 14.7888ZM78.8435 13.9961C78.0674 13.9961 77.6316 13.4275 77.6316 12.4397C77.6316 11.4602 78.0674 10.8875 78.8435 10.8875C79.6155 10.8875 80.0554 11.4602 80.0554 12.4397C80.0554 13.4233 79.6155 13.9961 78.8435 13.9961Z" fill="white"/>
<path d="M83.6314 14.0251C83.1458 14.0251 82.793 13.7886 82.793 13.3818C82.793 12.9834 83.0752 12.7717 83.6978 12.7302L84.8018 12.6597V13.0374C84.8018 13.5977 84.3038 14.0251 83.6314 14.0251ZM83.4031 14.7764C83.9966 14.7764 84.4905 14.519 84.7603 14.0667H84.8309V14.7017H85.69V11.6138C85.69 10.6592 85.0508 10.0947 83.9178 10.0947C82.8926 10.0947 82.1622 10.5928 82.0708 11.3689H82.9341C83.0337 11.0493 83.3782 10.8667 83.8763 10.8667C84.4864 10.8667 84.8018 11.1365 84.8018 11.6138V12.0039L83.5774 12.0745C82.5025 12.1409 81.8965 12.6099 81.8965 13.4233C81.8965 14.2493 82.5315 14.7764 83.4031 14.7764Z" fill="white"/>
<path d="M88.7181 14.7764C89.3407 14.7764 89.8678 14.4817 90.1375 13.9878H90.2081V14.7017H91.0631V8.41797H90.1707V10.8999H90.1043C89.8595 10.4019 89.3365 10.1072 88.7181 10.1072C87.5768 10.1072 86.8421 11.012 86.8421 12.4397C86.8421 13.8716 87.5685 14.7764 88.7181 14.7764ZM88.9713 10.9082C89.7184 10.9082 90.1874 11.5017 90.1874 12.4438C90.1874 13.3901 89.7225 13.9753 88.9713 13.9753C88.2159 13.9753 87.7635 13.3984 87.7635 12.4397C87.7635 11.4893 88.2201 10.9082 88.9713 10.9082Z" fill="white"/>
<path d="M96.8496 14.7888C98.1694 14.7888 98.9787 13.9048 98.9787 12.4397C98.9787 10.9829 98.1652 10.0947 96.8496 10.0947C95.5297 10.0947 94.7163 10.9829 94.7163 12.4397C94.7163 13.9048 95.5256 14.7888 96.8496 14.7888ZM96.8496 13.9961C96.0734 13.9961 95.6376 13.4275 95.6376 12.4397C95.6376 11.4602 96.0734 10.8875 96.8496 10.8875C97.6215 10.8875 98.0615 11.4602 98.0615 12.4397C98.0615 13.4233 97.6215 13.9961 96.8496 13.9961Z" fill="white"/>
<path d="M100.16 14.7017H101.052V12.0579C101.052 11.3523 101.471 10.9124 102.131 10.9124C102.791 10.9124 103.107 11.2734 103.107 11.9998V14.7017H103.999V11.7756C103.999 10.7007 103.443 10.0947 102.434 10.0947C101.754 10.0947 101.305 10.3977 101.085 10.8999H101.019V10.1819H100.16V14.7017Z" fill="white"/>
<path d="M108.109 9.05713V10.2026H107.391V10.9539H108.109V13.5063C108.109 14.3779 108.503 14.7266 109.495 14.7266C109.669 14.7266 109.835 14.7058 109.981 14.6809V13.938C109.856 13.9504 109.777 13.9587 109.64 13.9587C109.196 13.9587 109.001 13.7512 109.001 13.2781V10.9539H109.981V10.2026H109.001V9.05713H108.109Z" fill="white"/>
<path d="M111.178 14.7017H112.071V12.062C112.071 11.3772 112.477 10.9165 113.208 10.9165C113.839 10.9165 114.175 11.2817 114.175 12.0039V14.7017H115.067V11.7839C115.067 10.709 114.474 10.0989 113.511 10.0989C112.83 10.0989 112.353 10.4019 112.133 10.9082H112.062V8.41797H111.178V14.7017Z" fill="white"/>
<path d="M118.286 10.8542C118.946 10.8542 119.378 11.3149 119.399 12.0247H117.116C117.166 11.3191 117.626 10.8542 118.286 10.8542ZM119.394 13.4814C119.228 13.8342 118.859 14.0293 118.32 14.0293C117.606 14.0293 117.145 13.5271 117.116 12.7344V12.6846H120.308V12.3733C120.308 10.9539 119.548 10.0947 118.29 10.0947C117.016 10.0947 116.207 11.012 116.207 12.4563C116.207 13.9006 117 14.7888 118.295 14.7888C119.328 14.7888 120.05 14.2908 120.254 13.4814H119.394Z" fill="white"/>
<path d="M40.2661 20.303C40.2877 18.622 41.1905 17.0314 42.6226 16.151C41.7192 14.8606 40.2059 14.0425 38.6315 13.9933C36.9522 13.817 35.3243 14.9981 34.4686 14.9981C33.5963 14.9981 32.2788 14.0108 30.8601 14.04C29.0108 14.0997 27.2868 15.1511 26.3871 16.7678C24.4531 20.1163 25.8957 25.0373 27.7483 27.7439C28.6752 29.0693 29.7585 30.5497 31.176 30.4972C32.563 30.4397 33.0811 29.6127 34.7554 29.6127C36.4141 29.6127 36.9002 30.4972 38.3464 30.4638C39.8348 30.4397 40.7725 29.1326 41.6669 27.7947C42.3329 26.8503 42.8453 25.8066 43.1853 24.7022C41.4362 23.9624 40.2681 22.2021 40.2661 20.303Z" fill="white"/>
<path d="M37.5344 12.2133C38.3459 11.2391 38.7457 9.98689 38.6489 8.72266C37.4091 8.85288 36.2638 9.44544 35.4413 10.3823C34.6371 11.2976 34.2185 12.5277 34.2976 13.7437C35.5379 13.7564 36.7572 13.1799 37.5344 12.2133Z" fill="white"/>
</svg>
