<svg width="130" height="130" viewBox="0 0 130 130" fill="none" xmlns="http://www.w3.org/2000/svg">
<rect x="5" y="5" width="120" height="120" rx="60" fill="#B4DCDD"/>
<rect x="2.5" y="2.5" width="125" height="125" rx="62.5" stroke="#B4DCDD" stroke-opacity="0.3" stroke-width="5"/>
<path d="M64.2572 24.1796C63.6521 24.1796 63.0914 24.0707 62.5751 23.8529C62.0588 23.627 61.6071 23.3164 61.2198 22.9211C60.8407 22.5258 60.5462 22.066 60.3365 21.5416C60.1267 21.0172 60.0219 20.4566 60.0219 19.8596C60.0219 19.2546 60.1267 18.6899 60.3365 18.1655C60.5462 17.6411 60.8407 17.1853 61.2198 16.7981C61.6071 16.4028 62.0548 16.0962 62.563 15.8784C63.0793 15.6525 63.64 15.5396 64.2451 15.5396C64.9066 15.5396 65.4874 15.6525 65.9876 15.8784C66.4877 16.1043 66.9314 16.4109 67.3187 16.7981L66.5321 17.5846C66.2659 17.2862 65.9392 17.0522 65.5519 16.8828C65.1728 16.7134 64.7372 16.6287 64.2451 16.6287C63.8014 16.6287 63.394 16.7094 63.0229 16.8707C62.6518 17.024 62.3291 17.2458 62.0548 17.5362C61.7805 17.8267 61.5667 18.1695 61.4135 18.5648C61.2683 18.9601 61.1956 19.3917 61.1956 19.8596C61.1956 20.3275 61.2683 20.7591 61.4135 21.1544C61.5667 21.5497 61.7805 21.8925 62.0548 22.183C62.3291 22.4734 62.6518 22.6993 63.0229 22.8606C63.394 23.0139 63.8014 23.0905 64.2451 23.0905C64.7694 23.0905 65.2252 23.0058 65.6125 22.8364C65.9997 22.6589 66.3264 22.4209 66.5926 22.1225L67.3792 22.8969C66.9919 23.3003 66.5362 23.6149 66.0118 23.8408C65.4955 24.0667 64.9106 24.1796 64.2572 24.1796Z" fill="black"/>
<path d="M74.7715 25.3042C74.1919 25.1613 73.6775 24.9224 73.2283 24.5873C72.7811 24.2444 72.4168 23.8348 72.1354 23.3583C71.856 22.874 71.6732 22.3512 71.5872 21.7899C71.5091 21.2306 71.5414 20.6611 71.6843 20.0815C71.8291 19.494 72.0651 18.9748 72.3923 18.5237C72.7293 18.0666 73.1291 17.6916 73.5919 17.3985C74.0625 17.1074 74.5705 16.9169 75.1161 16.827C75.6696 16.7391 76.2361 16.7666 76.8157 16.9095C77.3953 17.0523 77.9058 17.2903 78.3472 17.6234C78.7963 17.9585 79.1616 18.3642 79.443 18.8407C79.7244 19.3172 79.9081 19.8361 79.9941 20.3973C80.08 20.9586 80.0506 21.5329 79.9059 22.1204C79.763 22.7 79.5231 23.2183 79.1861 23.6753C78.8491 24.1323 78.4453 24.5064 77.9748 24.7976C77.512 25.0906 77.003 25.285 76.4476 25.3808C75.902 25.4707 75.3433 25.4451 74.7715 25.3042ZM75.0087 24.241C75.5961 24.3858 76.142 24.3791 76.6463 24.2209C77.1603 24.0568 77.6045 23.7716 77.9788 23.3653C78.3551 22.9512 78.6185 22.4387 78.7691 21.8277C78.881 21.3734 78.909 20.94 78.8528 20.5273C78.7986 20.1068 78.6731 19.7228 78.4763 19.3751C78.2794 19.0275 78.0192 18.7349 77.6956 18.4973C77.3739 18.2518 76.9937 18.075 76.5551 17.9669C75.9755 17.824 75.4296 17.8307 74.9175 17.987C74.4132 18.1452 73.9739 18.4274 73.5996 18.8337C73.2331 19.2419 72.9746 19.7514 72.824 20.3624C72.712 20.8167 72.6782 21.2571 72.7227 21.6834C72.7769 22.1039 72.8985 22.487 73.0875 22.8327C73.2862 23.1725 73.5465 23.4651 73.8682 23.7106C74.1977 23.958 74.5779 24.1348 75.0087 24.241Z" fill="black"/>
<path d="M80.673 26.8522L84.5758 19.4162L85.2829 19.7873L84.97 21.1127L81.6802 27.3808L80.673 26.8522ZM85.8161 29.5515L84.4514 21.0592L85.2829 19.7873L86.664 28.2746L85.8161 29.5515ZM85.8161 29.5515L86.0953 28.2904L89.4188 21.958L90.426 22.4866L86.5233 29.9227L85.8161 29.5515Z" fill="black"/>
<path d="M91.03 33.1303L96.4384 27.0254L97.2898 27.7797L91.8814 33.8846L91.03 33.1303ZM93.7712 25.7295L94.4613 24.9506L99.5788 29.4843L98.8887 30.2633L93.7712 25.7295Z" fill="black"/>
<path d="M96.2982 37.8833L105.162 35.941L105.629 36.6182L100.663 44.2071L99.9621 43.1914L104.206 36.8359L104.447 37.1844L96.9856 38.8792L96.2982 37.8833ZM98.7898 38.1485L99.6064 37.5848L102.115 41.2198L101.299 41.7835L98.7898 38.1485Z" fill="black"/>
<path d="M103.347 50.2861C103.132 49.7204 103.035 49.1575 103.056 48.5975C103.084 48.0347 103.214 47.5021 103.446 46.9999C103.682 46.5052 104.007 46.0668 104.423 45.6848C104.839 45.3027 105.326 45.0058 105.884 44.7942C106.45 44.5796 107.015 44.4774 107.58 44.4876C108.144 44.4978 108.675 44.6114 109.172 44.8287C109.678 45.0505 110.124 45.3605 110.508 45.7584C110.902 46.1611 111.206 46.6453 111.421 47.211C111.656 47.8295 111.756 48.4127 111.722 48.9604C111.688 49.5082 111.559 50.0318 111.334 50.5312L110.32 50.0746C110.505 49.7199 110.607 49.3314 110.629 48.9093C110.652 48.4947 110.577 48.0573 110.403 47.5972C110.245 47.1823 110.025 46.83 109.743 46.5403C109.468 46.2476 109.146 46.0246 108.777 45.8711C108.409 45.7176 108.012 45.6393 107.588 45.6362C107.167 45.6406 106.738 45.7257 106.3 45.8917C105.863 46.0576 105.485 46.2785 105.167 46.5545C104.852 46.8379 104.607 47.1594 104.433 47.5189C104.258 47.8783 104.162 48.2601 104.142 48.6643C104.131 49.0656 104.203 49.4737 104.361 49.8886C104.547 50.3789 104.788 50.775 105.083 51.077C105.387 51.3762 105.725 51.5973 106.098 51.7403L105.653 52.7504C105.139 52.5314 104.683 52.2168 104.286 51.8066C103.891 51.4039 103.578 50.8971 103.347 50.2861Z" fill="black"/>
<path d="M105.694 58.2434L113.791 57.2603L113.928 58.3894L105.831 59.3725L105.694 58.2434ZM112.654 54.5216L113.687 54.3961L114.511 61.1832L113.478 61.3087L112.654 54.5216Z" fill="black"/>
<path d="M103.777 78.6319C103.998 78.0511 104.323 77.5793 104.754 77.2164C105.19 76.864 105.684 76.6416 106.237 76.5492C106.797 76.4597 107.367 76.5251 107.948 76.7454L112.893 78.6205L112.489 79.6841L107.567 77.8175C107.153 77.6602 106.761 77.611 106.394 77.6701C106.026 77.7291 105.704 77.8743 105.426 78.1055C105.146 78.3443 104.936 78.6485 104.796 79.0181C104.65 79.4028 104.605 79.7699 104.663 80.1195C104.717 80.4766 104.864 80.7954 105.102 81.0757C105.338 81.3637 105.66 81.5849 106.067 81.7393L111 83.6102L110.593 84.6851L105.637 82.8056C105.056 82.5854 104.589 82.2574 104.237 81.8217C103.885 81.3861 103.662 80.8919 103.57 80.3392C103.485 79.7894 103.554 79.2203 103.777 78.6319Z" fill="black"/>
<path d="M99.8608 86.7887C100.237 86.2443 100.657 85.8483 101.122 85.6007C101.587 85.3531 102.112 85.2105 102.696 85.173L102.894 86.2503C102.437 86.2586 102.031 86.3505 101.674 86.526C101.324 86.706 101.005 87.0052 100.717 87.4235C100.432 87.8351 100.295 88.2256 100.305 88.595C100.31 88.971 100.469 89.2667 100.781 89.4821C101.04 89.6609 101.29 89.7455 101.532 89.7359C101.774 89.7264 102.015 89.6531 102.257 89.516C102.501 89.3902 102.745 89.2353 102.99 89.0512C103.241 88.8718 103.495 88.6947 103.753 88.5198C104.018 88.3495 104.289 88.2129 104.566 88.11C104.849 88.0116 105.151 87.9796 105.47 88.0138C105.785 88.0547 106.118 88.1966 106.47 88.4395C106.862 88.7099 107.13 89.032 107.274 89.4057C107.42 89.7907 107.453 90.1963 107.375 90.6225C107.298 91.0598 107.118 91.4843 106.834 91.896C106.522 92.3474 106.153 92.6905 105.726 92.9253C105.306 93.1647 104.876 93.2987 104.434 93.3274L104.237 92.2501C104.618 92.2093 104.951 92.1106 105.235 91.954C105.515 91.8042 105.76 91.5765 105.971 91.2711C106.228 90.8993 106.349 90.5466 106.334 90.2129C106.326 89.8839 106.176 89.6185 105.884 89.4169C105.651 89.2565 105.421 89.1856 105.192 89.2043C104.966 89.2342 104.734 89.3144 104.497 89.4448C104.26 89.5752 104.016 89.7302 103.764 89.9096C103.515 90.1003 103.258 90.2807 102.994 90.451C102.729 90.6213 102.452 90.7533 102.162 90.8471C101.871 90.9408 101.562 90.9627 101.234 90.9127C100.908 90.8738 100.562 90.7284 100.197 90.4763C99.5865 90.0547 99.2551 89.5123 99.2032 88.8491C99.1467 88.1925 99.3659 87.5057 99.8608 86.7887Z" fill="black"/>
<path d="M87.1728 99.6492C87.3728 99.5442 87.5763 99.524 87.7833 99.5885C87.9868 99.6639 88.1392 99.798 88.2404 99.9908C88.3454 100.191 88.3673 100.389 88.3063 100.585C88.2418 100.792 88.1095 100.948 87.9095 101.053C87.7095 101.158 87.5096 101.176 87.3098 101.108C87.1066 101.051 86.9525 100.922 86.8475 100.722C86.7463 100.529 86.726 100.326 86.7868 100.111C86.8441 99.9083 86.9728 99.7542 87.1728 99.6492Z" fill="black"/>
<path d="M65.7428 105.82C66.3479 105.82 66.9086 105.929 67.4249 106.147C67.9412 106.373 68.3929 106.684 68.7802 107.079C69.1593 107.474 69.4538 107.934 69.6635 108.458C69.8733 108.983 69.9781 109.543 69.9781 110.14C69.9781 110.745 69.8733 111.31 69.6635 111.835C69.4538 112.359 69.1593 112.815 68.7802 113.202C68.3929 113.597 67.9452 113.904 67.437 114.122C66.9207 114.347 66.36 114.46 65.7549 114.46C65.0934 114.46 64.5126 114.347 64.0124 114.122C63.5123 113.896 63.0686 113.589 62.6813 113.202L63.4679 112.415C63.7341 112.714 64.0608 112.948 64.4481 113.117C64.8272 113.287 65.2628 113.371 65.7549 113.371C66.1986 113.371 66.606 113.291 66.9771 113.129C67.3482 112.976 67.6709 112.754 67.9452 112.464C68.2195 112.173 68.4333 111.83 68.5865 111.435C68.7317 111.04 68.8044 110.608 68.8044 110.14C68.8044 109.672 68.7317 109.241 68.5865 108.846C68.4333 108.45 68.2195 108.107 67.9452 107.817C67.6709 107.527 67.3482 107.301 66.9771 107.139C66.606 106.986 66.1986 106.909 65.7549 106.909C65.2306 106.909 64.7748 106.994 64.3875 107.164C64.0003 107.341 63.6736 107.579 63.4074 107.878L62.6208 107.103C63.0081 106.7 63.4638 106.385 63.9882 106.159C64.5045 105.933 65.0894 105.82 65.7428 105.82Z" fill="black"/>
<path d="M55.7324 104.749C56.312 104.891 56.8264 105.13 57.2756 105.465C57.7228 105.808 58.0871 106.218 58.3685 106.694C58.6479 107.179 58.8307 107.702 58.9167 108.263C58.9948 108.822 58.9625 109.392 58.8196 109.971C58.6748 110.559 58.4388 111.078 58.1116 111.529C57.7746 111.986 57.3748 112.361 56.912 112.654C56.4414 112.945 55.9334 113.136 55.3878 113.226C54.8343 113.314 54.2678 113.286 53.6882 113.143C53.1086 113 52.5981 112.762 52.1567 112.429C51.7076 112.094 51.3423 111.689 51.0609 111.212C50.7795 110.736 50.5959 110.217 50.5099 109.655C50.4239 109.094 50.4533 108.52 50.5981 107.932C50.7409 107.353 50.9808 106.834 51.3178 106.377C51.6548 105.92 52.0586 105.546 52.5291 105.255C52.9919 104.962 53.5009 104.768 54.0563 104.672C54.6019 104.582 55.1606 104.608 55.7324 104.749ZM55.4952 105.812C54.9078 105.667 54.3619 105.674 53.8576 105.832C53.3436 105.996 52.8994 106.281 52.5251 106.687C52.1488 107.102 51.8854 107.614 51.7348 108.225C51.6229 108.679 51.5949 109.113 51.6511 109.525C51.7053 109.946 51.8308 110.33 52.0277 110.678C52.2245 111.025 52.4847 111.318 52.8083 111.555C53.13 111.801 53.5102 111.978 53.9488 112.086C54.5284 112.229 55.0743 112.222 55.5864 112.066C56.0907 111.908 56.53 111.625 56.9043 111.219C57.2708 110.811 57.5293 110.301 57.6799 109.69C57.7919 109.236 57.8257 108.796 57.7812 108.369C57.727 107.949 57.6054 107.566 57.4164 107.22C57.2177 106.88 56.9574 106.588 56.6357 106.342C56.3062 106.095 55.926 105.918 55.4952 105.812Z" fill="black"/>
<path d="M49.8309 103.201L45.9281 110.637L45.221 110.265L45.5339 108.94L48.8237 102.672L49.8309 103.201ZM44.6878 100.501L46.0525 108.994L45.221 110.265L43.8399 101.778L44.6878 100.501ZM44.6878 100.501L44.4086 101.762L41.0851 108.095L40.0779 107.566L43.9806 100.13L44.6878 100.501Z" fill="black"/>
<path d="M39.4778 96.9225L34.0694 103.027L33.218 102.273L38.6264 96.1682L39.4778 96.9225ZM36.7366 104.323L36.0465 105.102L30.929 100.568L31.6191 99.7895L36.7366 104.323Z" fill="black"/>
<path d="M34.2096 92.1675L25.3459 94.1098L24.8785 93.4326L29.8446 85.8436L30.5457 86.8594L26.3016 93.2149L26.061 92.8663L33.5222 91.1716L34.2096 92.1675ZM31.7181 91.9023L30.9014 92.4659L28.3924 88.831L29.209 88.2673L31.7181 91.9023Z" fill="black"/>
<path d="M27.1532 79.7666C27.3678 80.3323 27.4648 80.8952 27.4442 81.4552C27.4161 82.018 27.2859 82.5506 27.0536 83.0528C26.8184 83.5475 26.4929 83.9859 26.077 84.368C25.6611 84.75 25.174 85.0469 24.6158 85.2586C24.0501 85.4731 23.4849 85.5753 22.9202 85.5651C22.3556 85.555 21.825 85.4413 21.3285 85.2241C20.8215 85.0022 20.3761 84.6923 19.9923 84.2943C19.598 83.8916 19.2935 83.4074 19.079 82.8417C18.8444 82.2232 18.7441 81.6401 18.7779 81.0923C18.8117 80.5445 18.941 80.021 19.1658 79.5216L20.1801 79.9781C19.9955 80.3329 19.8926 80.7213 19.8715 81.1435C19.8475 81.5581 19.9228 81.9954 20.0973 82.4555C20.2546 82.8704 20.4745 83.2227 20.757 83.5125C21.0319 83.8051 21.3537 84.0281 21.7226 84.1816C22.0914 84.3351 22.4878 84.4134 22.9117 84.4166C23.3328 84.4122 23.7621 84.327 24.1996 84.1611C24.6371 83.9952 25.0149 83.7742 25.333 83.4983C25.6483 83.2148 25.893 82.8933 26.0673 82.5339C26.2416 82.1744 26.3384 81.7926 26.3576 81.3884C26.3694 80.9871 26.2966 80.579 26.1392 80.1641C25.9533 79.6738 25.7125 79.2777 25.4167 78.9757C25.1135 78.6766 24.7751 78.4555 24.4016 78.3124L24.8468 77.3023C25.3613 77.5214 25.8171 77.836 26.2142 78.2462C26.6085 78.6488 26.9215 79.1556 27.1532 79.7666Z" fill="black"/>
<path d="M24.8058 71.8094L16.7093 72.7925L16.5722 71.6633L24.6687 70.6802L24.8058 71.8094ZM17.8463 75.5312L16.8132 75.6566L15.9891 68.8695L17.0222 68.7441L17.8463 75.5312Z" fill="black"/>
<path d="M26.7266 51.4208C26.5064 52.0016 26.1808 52.4734 25.7498 52.8363C25.3142 53.1888 24.82 53.4112 24.2673 53.5035C23.707 53.593 23.1365 53.5277 22.5557 53.3074L17.6113 51.4322L18.0146 50.3686L22.9364 52.2352C23.3513 52.3926 23.7425 52.4417 24.11 52.3827C24.4775 52.3236 24.8 52.1784 25.0775 51.9472C25.3579 51.7084 25.5682 51.4042 25.7083 51.0346C25.8542 50.6499 25.8986 50.2828 25.8413 49.9332C25.7869 49.5761 25.6404 49.2574 25.4016 48.977C25.1657 48.6891 24.844 48.4679 24.4367 48.3134L19.5036 46.4425L19.9112 45.3676L24.867 47.2471C25.4478 47.4674 25.9144 47.7953 26.2669 48.231C26.6193 48.6666 26.8418 49.1608 26.9341 49.7135C27.0189 50.2634 26.9498 50.8325 26.7266 51.4208Z" fill="black"/>
<path d="M30.6392 43.264C30.2634 43.8085 29.843 44.2045 29.3781 44.452C28.9131 44.6996 28.3883 44.8422 27.8036 44.8798L27.6062 43.8025C28.0628 43.7942 28.4693 43.7023 28.8257 43.5268C29.1755 43.3467 29.4947 43.0475 29.7834 42.6292C30.0676 42.2176 30.2048 41.8271 30.1951 41.4577C30.19 41.0817 30.0314 40.786 29.7194 40.5706C29.4604 40.3919 29.21 40.3073 28.9682 40.3168C28.7264 40.3263 28.4846 40.3996 28.243 40.5367C27.9993 40.6625 27.7551 40.8175 27.5105 41.0015C27.2592 41.1809 27.0046 41.3581 26.7466 41.5329C26.4821 41.7032 26.2113 41.8398 25.9344 41.9427C25.6509 42.0411 25.3494 42.0732 25.03 42.0389C24.7151 41.998 24.3817 41.8561 24.0298 41.6132C23.6381 41.3429 23.3703 41.0208 23.2264 40.647C23.0805 40.262 23.0468 39.8564 23.1253 39.4303C23.2017 38.9929 23.382 38.5684 23.6661 38.1568C23.9777 37.7053 24.3469 37.3622 24.7736 37.1274C25.1937 36.888 25.6244 36.754 26.0657 36.7253L26.2631 37.8026C25.882 37.8435 25.5493 37.9422 25.2648 38.0987C24.9849 38.2486 24.7395 38.4762 24.5287 38.7816C24.2721 39.1534 24.1512 39.5061 24.1659 39.8398C24.174 40.1689 24.3241 40.4342 24.6163 40.6359C24.8486 40.7963 25.0791 40.8671 25.3076 40.8484C25.5341 40.8185 25.7659 40.7384 26.003 40.6079C26.2401 40.4775 26.4842 40.3226 26.7355 40.1431C26.9848 39.9525 27.2417 39.772 27.5062 39.6017C27.7708 39.4315 28.0482 39.2994 28.3383 39.2057C28.6285 39.1119 28.9377 39.09 29.2658 39.1401C29.5919 39.1789 29.9375 39.3244 30.3027 39.5764C30.9135 39.998 31.2449 40.5404 31.2968 41.2036C31.3533 41.8602 31.1341 42.547 30.6392 43.264Z" fill="black"/>
<path d="M43.3272 30.4035C43.1272 30.5085 42.9237 30.5287 42.7167 30.4643C42.5132 30.3889 42.3608 30.2548 42.2596 30.0619C42.1546 29.8619 42.1327 29.6638 42.1937 29.4678C42.2582 29.2608 42.3905 29.1049 42.5905 28.9999C42.7905 28.8949 42.9904 28.8766 43.1902 28.9448C43.3934 29.0021 43.5475 29.1308 43.6525 29.3308C43.7537 29.5237 43.774 29.7272 43.7132 29.9413C43.6559 30.1445 43.5272 30.2986 43.3272 30.4035Z" fill="black"/>
<path d="M58.4449 72.562L72.5625 58.4444" stroke="black" stroke-width="1.5126" stroke-linecap="round" stroke-linejoin="round"/>
<path d="M60.4617 58.4446L72.5625 58.4446L72.5625 70.5454" stroke="black" stroke-width="1.5126" stroke-linecap="round" stroke-linejoin="round"/>
</svg>
