<svg width="53" height="52" viewBox="0 0 53 52" fill="none" xmlns="http://www.w3.org/2000/svg">
<rect x="1.73828" y="51.25" width="50.5" height="50.5" rx="25.25" transform="rotate(-90 1.73828 51.25)" fill="#F1F1F1"/>
<rect x="1.73828" y="51.25" width="50.5" height="50.5" rx="25.25" transform="rotate(-90 1.73828 51.25)" stroke="url(#paint0_linear_4079_10990)" stroke-width="1.5"/>
<path opacity="0.4" d="M34.957 24V32C34.957 35 33.957 36 30.957 36H22.957C19.957 36 18.957 35 18.957 32V24H34.957Z" fill="#3C444F"/>
<path d="M36.4883 21V22C36.4883 23.1 35.9583 24 34.4883 24H19.4883C17.9583 24 17.4883 23.1 17.4883 22V21C17.4883 19.9 17.9583 19 19.4883 19H34.4883C35.9583 19 36.4883 19.9 36.4883 21Z" fill="#3C444F"/>
<path opacity="0.4" d="M26.6271 19.0004H21.1071C20.7671 18.6304 20.7771 18.0604 21.1371 17.7004L22.5571 16.2804C22.9271 15.9104 23.5371 15.9104 23.9071 16.2804L26.6271 19.0004Z" fill="#3C444F"/>
<path opacity="0.4" d="M32.8559 19.0004H27.3359L30.0559 16.2804C30.4259 15.9104 31.0359 15.9104 31.4059 16.2804L32.8259 17.7004C33.1859 18.0604 33.1959 18.6304 32.8559 19.0004Z" fill="#3C444F"/>
<path opacity="0.6" d="M23.9297 24V29.14C23.9297 29.94 24.8097 30.41 25.4797 29.98L26.4197 29.36C26.7597 29.14 27.1897 29.14 27.5197 29.36L28.4097 29.96C29.0697 30.4 29.9597 29.93 29.9597 29.13V24H23.9297Z" fill="#3C444F"/>
<defs>
<linearGradient id="paint0_linear_4079_10990" x1="26.9883" y1="52" x2="26.9883" y2="104" gradientUnits="userSpaceOnUse">
<stop stop-color="#F6F6F6"/>
<stop offset="1" stop-color="#E6E6E6"/>
</linearGradient>
</defs>
</svg>
