<svg width="174" height="40" viewBox="0 0 174 40" fill="none" xmlns="http://www.w3.org/2000/svg">
<rect x="0.5" y="0.5" width="173" height="39" rx="11.5" stroke="white"/>
<path d="M83.1409 21.7509C80.7889 21.7509 78.8719 23.5399 78.8719 26.0039C78.8719 28.4529 80.7889 30.2569 83.1409 30.2569C85.4939 30.2569 87.4109 28.4529 87.4109 26.0039C87.4099 23.5399 85.4929 21.7509 83.1409 21.7509ZM83.1409 28.5829C81.8519 28.5829 80.7409 27.5199 80.7409 26.0049C80.7409 24.4739 81.8529 23.4269 83.1409 23.4269C84.4299 23.4269 85.5409 24.4739 85.5409 26.0049C85.5409 27.5189 84.4299 28.5829 83.1409 28.5829ZM73.8269 21.7509C71.4749 21.7509 69.5579 23.5399 69.5579 26.0039C69.5579 28.4529 71.4749 30.2569 73.8269 30.2569C76.1799 30.2569 78.0969 28.4529 78.0969 26.0039C78.0969 23.5399 76.1799 21.7509 73.8269 21.7509ZM73.8269 28.5829C72.5379 28.5829 71.4269 27.5199 71.4269 26.0049C71.4269 24.4739 72.5389 23.4269 73.8269 23.4269C75.1159 23.4269 76.2269 24.4739 76.2269 26.0049C76.2279 27.5189 75.1159 28.5829 73.8269 28.5829ZM62.7489 23.0569V24.8609H67.0669C66.9379 25.8759 66.5999 26.6169 66.0839 27.1319C65.4559 27.7599 64.4729 28.4529 62.7489 28.4529C60.0909 28.4529 58.0129 26.3099 58.0129 23.6519C58.0129 20.9939 60.0909 18.8509 62.7489 18.8509C64.1829 18.8509 65.2299 19.4149 66.0029 20.1399L67.2759 18.8669C66.1959 17.8359 64.7629 17.0469 62.7489 17.0469C59.1079 17.0469 56.0469 20.0109 56.0469 23.6519C56.0469 27.2929 59.1079 30.2569 62.7489 30.2569C64.7139 30.2569 66.1969 29.6119 67.3559 28.4039C68.5479 27.2119 68.9189 25.5359 68.9189 24.1829C68.9189 23.7649 68.8869 23.3779 68.8219 23.0559H62.7489V23.0569ZM108.057 24.4579C107.703 23.5079 106.623 21.7509 104.416 21.7509C102.225 21.7509 100.404 23.4749 100.404 26.0039C100.404 28.3879 102.209 30.2569 104.625 30.2569C106.574 30.2569 107.702 29.0649 108.17 28.3719L106.72 27.4049C106.237 28.1139 105.576 28.5809 104.625 28.5809C103.675 28.5809 102.998 28.1459 102.563 27.2919L108.25 24.9399L108.057 24.4579ZM102.257 25.8759C102.209 24.2319 103.53 23.3949 104.481 23.3949C105.222 23.3949 105.85 23.7659 106.06 24.2969L102.257 25.8759ZM97.6339 29.9999H99.5019V17.4989H97.6339V29.9999ZM94.5719 22.7019H94.5079C94.0889 22.2019 93.2829 21.7509 92.2689 21.7509C90.1419 21.7509 88.1929 23.6199 88.1929 26.0209C88.1929 28.4049 90.1419 30.2579 92.2689 30.2579C93.2839 30.2579 94.0889 29.8069 94.5079 29.2919H94.5719V29.9039C94.5719 31.5309 93.7019 32.4009 92.3009 32.4009C91.1569 32.4009 90.4479 31.5799 90.1579 30.8869L88.5309 31.5639C88.9979 32.6909 90.2379 34.0769 92.3009 34.0769C94.4919 34.0769 96.3449 32.7879 96.3449 29.6459V22.0099H94.5729V22.7019H94.5719ZM92.4299 28.5829C91.1409 28.5829 90.0619 27.5029 90.0619 26.0209C90.0619 24.5219 91.1409 23.4269 92.4299 23.4269C93.7019 23.4269 94.7009 24.5219 94.7009 26.0209C94.7009 27.5029 93.7019 28.5829 92.4299 28.5829ZM116.811 17.4989H112.34V29.9999H114.205V25.2639H116.81C118.878 25.2639 120.912 23.7669 120.912 21.3819C120.912 18.9969 118.879 17.4989 116.811 17.4989ZM116.859 23.5239H114.205V19.2389H116.859C118.254 19.2389 119.046 20.3939 119.046 21.3819C119.046 22.3499 118.254 23.5239 116.859 23.5239ZM128.391 21.7289C127.04 21.7289 125.641 22.3239 125.062 23.6429L126.718 24.3339C127.072 23.6429 127.732 23.4169 128.423 23.4169C129.388 23.4169 130.369 23.9959 130.385 25.0249V25.1539C130.047 24.9609 129.323 24.6719 128.439 24.6719C126.654 24.6719 124.836 25.6529 124.836 27.4859C124.836 29.1589 126.3 30.2359 127.94 30.2359C129.194 30.2359 129.886 29.6729 130.32 29.0129H130.384V29.9779H132.186V25.1849C132.187 22.9669 130.529 21.7289 128.391 21.7289ZM128.165 28.5799C127.555 28.5799 126.702 28.2739 126.702 27.5179C126.702 26.5529 127.764 26.1829 128.681 26.1829C129.5 26.1829 129.887 26.3599 130.385 26.6009C130.24 27.7599 129.243 28.5799 128.165 28.5799ZM138.748 22.0019L136.609 27.4219H136.545L134.325 22.0019H132.315L135.644 29.5769L133.746 33.7909H135.692L140.823 22.0019H138.748ZM121.942 29.9999H123.807V17.4989H121.942V29.9999Z" fill="white"/>
<path d="M62.4176 10.2412C62.4176 11.0792 62.1696 11.7462 61.6726 12.2442C61.1086 12.8362 60.3726 13.1322 59.4686 13.1322C58.6026 13.1322 57.8656 12.8322 57.2606 12.2322C56.6546 11.6312 56.3516 10.8872 56.3516 9.99923C56.3516 9.11023 56.6546 8.36623 57.2606 7.76623C57.8656 7.16523 58.6026 6.86524 59.4686 6.86524C59.8986 6.86524 60.3096 6.94923 60.6996 7.11623C61.0906 7.28423 61.4036 7.50723 61.6376 7.78623L61.1106 8.31423C60.7136 7.83923 60.1666 7.60223 59.4676 7.60223C58.8356 7.60223 58.2896 7.82424 57.8286 8.26824C57.3676 8.71224 57.1376 9.28923 57.1376 9.99823C57.1376 10.7072 57.3676 11.2842 57.8286 11.7282C58.2896 12.1722 58.8356 12.3942 59.4676 12.3942C60.1376 12.3942 60.6966 12.1712 61.1436 11.7242C61.4336 11.4332 61.6016 11.0282 61.6466 10.5092H59.4676V9.78824H62.3746C62.4046 9.94524 62.4176 10.0962 62.4176 10.2412Z" fill="white"/>
<path d="M67.0277 7.73529H64.2957V9.63729H66.7597V10.3583H64.2957V12.2603H67.0277V12.9983H63.5247V6.99829H67.0277V7.73529Z" fill="white"/>
<path d="M70.2785 12.9983H69.5075V7.73529H67.8315V6.99829H71.9545V7.73529H70.2785V12.9983Z" fill="white"/>
<path d="M74.9375 12.9983V6.99829H75.7085V12.9983H74.9375Z" fill="white"/>
<path d="M79.1277 12.9983H78.3567V7.73529H76.6807V6.99829H80.8037V7.73529H79.1277V12.9983Z" fill="white"/>
<path d="M88.6084 12.2233C88.0184 12.8293 87.2854 13.1323 86.4084 13.1323C85.5314 13.1323 84.7984 12.8293 84.2094 12.2233C83.6194 11.6173 83.3254 10.8753 83.3254 9.99828C83.3254 9.12128 83.6194 8.37928 84.2094 7.77328C84.7984 7.16728 85.5314 6.86328 86.4084 6.86328C87.2804 6.86328 88.0124 7.16828 88.6044 7.77728C89.1964 8.38628 89.4924 9.12628 89.4924 9.99828C89.4924 10.8753 89.1974 11.6173 88.6084 12.2233ZM84.7784 11.7203C85.2224 12.1703 85.7654 12.3943 86.4084 12.3943C87.0514 12.3943 87.5954 12.1693 88.0384 11.7203C88.4824 11.2703 88.7054 10.6963 88.7054 9.99828C88.7054 9.30028 88.4824 8.72628 88.0384 8.27628C87.5954 7.82628 87.0514 7.60228 86.4084 7.60228C85.7654 7.60228 85.2224 7.82728 84.7784 8.27628C84.3354 8.72628 84.1124 9.30028 84.1124 9.99828C84.1124 10.6963 84.3354 11.2703 84.7784 11.7203Z" fill="white"/>
<path d="M90.5745 12.9983V6.99829H91.5125L94.4285 11.6653H94.4615L94.4285 10.5093V6.99829H95.1995V12.9983H94.3945L91.3435 8.10429H91.3105L91.3435 9.26029V12.9983H90.5745Z" fill="white"/>
<path d="M62.4176 10.2412C62.4176 11.0792 62.1696 11.7462 61.6726 12.2442C61.1086 12.8362 60.3726 13.1322 59.4686 13.1322C58.6026 13.1322 57.8656 12.8322 57.2606 12.2322C56.6546 11.6312 56.3516 10.8872 56.3516 9.99923C56.3516 9.11023 56.6546 8.36623 57.2606 7.76623C57.8656 7.16523 58.6026 6.86524 59.4686 6.86524C59.8986 6.86524 60.3096 6.94923 60.6996 7.11623C61.0906 7.28423 61.4036 7.50723 61.6376 7.78623L61.1106 8.31423C60.7136 7.83923 60.1666 7.60223 59.4676 7.60223C58.8356 7.60223 58.2896 7.82424 57.8286 8.26824C57.3676 8.71224 57.1376 9.28923 57.1376 9.99823C57.1376 10.7072 57.3676 11.2842 57.8286 11.7282C58.2896 12.1722 58.8356 12.3942 59.4676 12.3942C60.1376 12.3942 60.6966 12.1712 61.1436 11.7242C61.4336 11.4332 61.6016 11.0282 61.6466 10.5092H59.4676V9.78824H62.3746C62.4046 9.94524 62.4176 10.0962 62.4176 10.2412Z" stroke="white" stroke-width="0.2" stroke-miterlimit="10"/>
<path d="M67.0277 7.73529H64.2957V9.63729H66.7597V10.3583H64.2957V12.2603H67.0277V12.9983H63.5247V6.99829H67.0277V7.73529Z" stroke="white" stroke-width="0.2" stroke-miterlimit="10"/>
<path d="M70.2785 12.9983H69.5075V7.73529H67.8315V6.99829H71.9545V7.73529H70.2785V12.9983Z" stroke="white" stroke-width="0.2" stroke-miterlimit="10"/>
<path d="M74.9375 12.9983V6.99829H75.7085V12.9983H74.9375Z" stroke="white" stroke-width="0.2" stroke-miterlimit="10"/>
<path d="M79.1277 12.9983H78.3567V7.73529H76.6807V6.99829H80.8037V7.73529H79.1277V12.9983Z" stroke="white" stroke-width="0.2" stroke-miterlimit="10"/>
<path d="M88.6084 12.2233C88.0184 12.8293 87.2854 13.1323 86.4084 13.1323C85.5314 13.1323 84.7984 12.8293 84.2094 12.2233C83.6194 11.6173 83.3254 10.8753 83.3254 9.99828C83.3254 9.12128 83.6194 8.37928 84.2094 7.77328C84.7984 7.16728 85.5314 6.86328 86.4084 6.86328C87.2804 6.86328 88.0124 7.16828 88.6044 7.77728C89.1964 8.38628 89.4924 9.12628 89.4924 9.99828C89.4924 10.8753 89.1974 11.6173 88.6084 12.2233ZM84.7784 11.7203C85.2224 12.1703 85.7654 12.3943 86.4084 12.3943C87.0514 12.3943 87.5954 12.1693 88.0384 11.7203C88.4824 11.2703 88.7054 10.6963 88.7054 9.99828C88.7054 9.30028 88.4824 8.72628 88.0384 8.27628C87.5954 7.82628 87.0514 7.60228 86.4084 7.60228C85.7654 7.60228 85.2224 7.82728 84.7784 8.27628C84.3354 8.72628 84.1124 9.30028 84.1124 9.99828C84.1124 10.6963 84.3354 11.2703 84.7784 11.7203Z" stroke="white" stroke-width="0.2" stroke-miterlimit="10"/>
<path d="M90.5745 12.9983V6.99829H91.5125L94.4285 11.6653H94.4615L94.4285 10.5093V6.99829H95.1995V12.9983H94.3945L91.3435 8.10429H91.3105L91.3435 9.26029V12.9983H90.5745Z" stroke="white" stroke-width="0.2" stroke-miterlimit="10"/>
<path d="M41.6699 24.4789L27.5098 32.5258C26.8771 32.8846 26.2971 32.9452 25.8516 32.7563L37.8984 20.7075L41.6699 24.4789ZM37.1914 20.0004L25.1543 32.0395C25.0351 31.7715 24.9688 31.4427 24.9688 31.059V8.94281C24.9688 8.55978 25.0341 8.2305 25.1533 7.96234L37.1914 20.0004ZM47.0107 18.558C48.4077 19.352 48.4076 20.6507 47.0107 21.4457L42.5723 23.9672L38.6055 20.0004L42.5703 16.0346L47.0107 18.558ZM25.8516 7.24652C26.2971 7.05747 26.8772 7.11753 27.5098 7.47699L41.6689 15.5219L37.8984 19.2934L25.8516 7.24652Z" fill="white"/>
</svg>
