<svg width="37" height="38" viewBox="0 0 37 38" fill="none" xmlns="http://www.w3.org/2000/svg">
<rect x="0.109375" y="0.632202" width="36.7356" height="36.7356" rx="11.0207" fill="#E5E7E6"/>
<rect x="0.765368" y="1.2882" width="35.4236" height="35.4236" rx="10.3647" stroke="#B4DCDD" stroke-opacity="0.5" stroke-width="1.31199"/>
<path d="M18.1914 11.6509C18.6717 9.01582 21.2057 7.26224 23.8417 7.74273C26.4766 8.22321 28.2304 10.7579 27.75 13.3931C27.4652 14.9552 26.4576 16.2081 25.1357 16.8667C25.1491 16.7479 25.1607 16.6254 25.1689 16.5005C25.177 16.3822 25.1829 16.2633 25.1875 16.1421C26.1817 15.5326 26.9233 14.5181 27.1484 13.2837C27.5682 10.9806 26.0354 8.76445 23.7324 8.34429C23.4729 8.29707 23.2146 8.27473 22.9599 8.27495C22.9351 8.2745 22.9106 8.27521 22.8867 8.27593C20.9091 8.31302 19.1603 9.74056 18.7919 11.7603C18.7337 12.0798 18.713 12.3974 18.7275 12.7095C18.7362 12.9171 18.7609 13.122 18.8007 13.3228C18.983 14.2702 19.484 15.125 20.208 15.7466C20.4086 15.9186 20.628 16.0748 20.8613 16.2095C20.9184 16.2414 20.9758 16.2722 21.0332 16.3023C21.2179 16.396 21.4114 16.4778 21.6123 16.5455C21.6545 16.336 21.6678 16.1197 21.6464 15.9078C21.6221 15.6553 21.5509 15.4082 21.4218 15.1861C21.4665 15.2651 21.1376 15.4541 21.0859 15.482C21.04 15.5068 20.9928 15.5248 20.9433 15.5406C20.1267 14.9901 19.5608 14.1243 19.3886 13.15C19.8518 13.0057 20.3084 12.8425 20.7421 12.6265C21.6405 12.1795 22.1973 11.523 22.54 10.9488C22.8824 10.3743 23.0094 9.88133 23.0498 9.7564C23.2129 10.0655 23.3837 10.3721 23.5195 10.6949C24.1069 12.101 24.5284 13.5451 24.5732 15.0884C24.5798 15.3196 24.5844 15.5503 24.583 15.7798C24.5821 16.0061 24.5748 16.2326 24.5595 16.4585C24.5442 16.6844 24.5201 16.9109 24.4853 17.1353C24.4595 17.2941 24.4287 17.4524 24.3906 17.6099C24.3737 17.6794 24.3564 17.749 24.3378 17.8169C24.185 18.3718 23.9576 18.8816 23.6347 19.3414C23.4563 19.5987 23.2485 19.84 23.0068 20.065C23.3014 19.9987 23.5759 19.9068 23.8212 19.7642C24.1447 19.5739 24.417 19.2958 24.6093 18.8765C24.6093 18.8765 24.6944 19.3498 24.6787 19.7662C24.6596 20.2967 24.6081 20.8042 24.4892 21.2867C24.3377 21.902 24.0956 22.475 23.7587 22.9996L19.8125 29.1148C19.0203 30.3492 17.3769 30.7079 16.1416 29.9156L10.3554 26.2046C9.1202 25.4123 8.76157 23.769 9.55366 22.5337L13.5966 16.2681C13.8915 15.8085 14.2367 15.397 14.6376 15.0425C15.1079 14.6271 15.655 14.2895 16.288 14.0425C16.7207 13.873 17.1664 13.7464 17.6152 13.6294C17.8121 13.5774 18.0096 13.528 18.207 13.4781C18.1669 13.2783 18.1391 13.0741 18.125 12.8677C18.0961 12.4702 18.1165 12.0617 18.1914 11.6509ZM19.7753 16.1783C19.7425 16.2508 19.7192 16.3328 19.706 16.4224C19.6767 16.623 19.7035 16.8059 19.7832 16.9654C19.8568 17.1123 19.9736 17.2388 20.1328 17.3423C20.2992 17.4502 20.4941 17.4984 20.6845 17.4917C20.9655 17.4819 21.2386 17.3535 21.4023 17.1207C21.1869 17.0473 20.979 16.9593 20.7802 16.858C20.6161 16.7764 20.4581 16.6837 20.3056 16.5835C20.119 16.4604 19.9421 16.3245 19.7753 16.1783Z" fill="#004B4D"/>
</svg>
