<svg width="52" height="52" viewBox="0 0 52 52" fill="none" xmlns="http://www.w3.org/2000/svg">
<rect x="0.75" y="51.25" width="50.5" height="50.5" rx="25.25" transform="rotate(-90 0.75 51.25)" fill="#F1F1F1"/>
<rect x="0.75" y="51.25" width="50.5" height="50.5" rx="25.25" transform="rotate(-90 0.75 51.25)" stroke="url(#paint0_linear_5554_27320)" stroke-width="1.5"/>
<path d="M31.5291 21.77C31.4591 21.76 31.3891 21.76 31.3191 21.77C29.7691 21.72 28.5391 20.45 28.5391 18.89C28.5391 17.3 29.8291 16 31.4291 16C33.0191 16 34.3191 17.29 34.3191 18.89C34.3091 20.45 33.0791 21.72 31.5291 21.77Z" fill="#3C444F"/>
<path d="M34.7916 28.7004C33.6716 29.4504 32.1016 29.7304 30.6516 29.5404C31.0316 28.7204 31.2316 27.8104 31.2416 26.8504C31.2416 25.8504 31.0216 24.9004 30.6016 24.0704C32.0816 23.8704 33.6516 24.1504 34.7816 24.9004C36.3616 25.9404 36.3616 27.6504 34.7916 28.7004Z" fill="#3C444F"/>
<path d="M20.4384 21.77C20.5084 21.76 20.5784 21.76 20.6484 21.77C22.1984 21.72 23.4284 20.45 23.4284 18.89C23.4284 17.3 22.1384 16 20.5384 16C18.9484 16 17.6484 17.29 17.6484 18.89C17.6584 20.45 18.8884 21.72 20.4384 21.77Z" fill="#3C444F"/>
<path d="M20.5472 26.8496C20.5472 27.8196 20.7572 28.7396 21.1372 29.5696C19.7272 29.7196 18.2572 29.4196 17.1772 28.7096C15.5972 27.6596 15.5972 25.9496 17.1772 24.8996C18.2472 24.1796 19.7572 23.8896 21.1772 24.0496C20.7672 24.8896 20.5472 25.8396 20.5472 26.8496Z" fill="#3C444F"/>
<path d="M26.1169 29.87C26.0369 29.86 25.9469 29.86 25.8569 29.87C24.0169 29.81 22.5469 28.3 22.5469 26.44C22.5469 24.54 24.0769 23 25.9869 23C27.8869 23 29.4269 24.54 29.4269 26.44C29.4269 28.3 27.9669 29.81 26.1169 29.87Z" fill="#3C444F"/>
<path d="M22.8669 31.9396C21.3569 32.9496 21.3569 34.6096 22.8669 35.6096C24.5869 36.7596 27.4069 36.7596 29.1269 35.6096C30.6369 34.5996 30.6369 32.9396 29.1269 31.9396C27.4169 30.7896 24.5969 30.7896 22.8669 31.9396Z" fill="#3C444F"/>
<defs>
<linearGradient id="paint0_linear_5554_27320" x1="26" y1="52" x2="26" y2="104" gradientUnits="userSpaceOnUse">
<stop stop-color="#F6F6F6"/>
<stop offset="1" stop-color="#E6E6E6"/>
</linearGradient>
</defs>
</svg>
