<svg width="25" height="26" viewBox="0 0 25 26" fill="none" xmlns="http://www.w3.org/2000/svg">
<path d="M17.6699 17.4789L3.50977 25.5258C2.87708 25.8846 2.29712 25.9452 1.85156 25.7563L13.8984 13.7075L17.6699 17.4789ZM13.1914 13.0004L1.1543 25.0395C1.03513 24.7715 0.96875 24.4427 0.96875 24.059V1.94281C0.96879 1.55978 1.03411 1.2305 1.15332 0.962341L13.1914 13.0004ZM23.0107 11.558C24.4077 12.352 24.4076 13.6507 23.0107 14.4457L18.5723 16.9672L14.6055 13.0004L18.5703 9.03461L23.0107 11.558ZM1.85156 0.246521C2.29709 0.0574681 2.87717 0.117525 3.50977 0.47699L17.6689 8.52191L13.8984 12.2934L1.85156 0.246521Z" fill="white"/>
</svg>
