<svg width="53" height="52" viewBox="0 0 53 52" fill="none" xmlns="http://www.w3.org/2000/svg">
<rect x="1.73828" y="51.25" width="50.5" height="50.5" rx="25.25" transform="rotate(-90 1.73828 51.25)" fill="#F1F1F1"/>
<rect x="1.73828" y="51.25" width="50.5" height="50.5" rx="25.25" transform="rotate(-90 1.73828 51.25)" stroke="url(#paint0_linear_4079_11004)" stroke-width="1.5"/>
<path opacity="0.4" d="M18.4883 36V19C18.4883 17 19.8283 16 21.4883 16H29.4883C31.1483 16 32.4883 17 32.4883 19V36H18.4883Z" fill="#3C444F"/>
<path d="M33.9883 36.75H16.9883C16.5783 36.75 16.2383 36.41 16.2383 36C16.2383 35.59 16.5783 35.25 16.9883 35.25H33.9883C34.3983 35.25 34.7383 35.59 34.7383 36C34.7383 36.41 34.3983 36.75 33.9883 36.75Z" fill="#3C444F"/>
<path d="M22.8783 24H28.1083C29.1483 24 29.9983 23.5 29.9983 22.11V20.88C29.9883 19.5 29.1383 19 28.0983 19H22.8683C21.8383 19 20.9883 19.5 20.9883 20.89V22.12C20.9883 23.5 21.8383 24 22.8783 24Z" fill="#3C444F"/>
<path d="M24.4883 27.75H21.4883C21.0783 27.75 20.7383 27.41 20.7383 27C20.7383 26.59 21.0783 26.25 21.4883 26.25H24.4883C24.8983 26.25 25.2383 26.59 25.2383 27C25.2383 27.41 24.8983 27.75 24.4883 27.75Z" fill="#3C444F"/>
<path d="M37.7383 24V30C37.7383 30.41 37.4083 30.75 36.9883 30.75L32.4883 30.76V29.26L36.2383 29.25V24.46L34.6483 23.67C34.2783 23.49 34.1283 23.04 34.3183 22.66C34.4983 22.29 34.9583 22.15 35.3283 22.33L37.3283 23.33C37.5783 23.46 37.7383 23.72 37.7383 24Z" fill="#3C444F"/>
<defs>
<linearGradient id="paint0_linear_4079_11004" x1="26.9883" y1="52" x2="26.9883" y2="104" gradientUnits="userSpaceOnUse">
<stop stop-color="#F6F6F6"/>
<stop offset="1" stop-color="#E6E6E6"/>
</linearGradient>
</defs>
</svg>
