<svg width="100" height="99" viewBox="0 0 100 99" fill="none" xmlns="http://www.w3.org/2000/svg">
<rect x="0.609375" y="0.5" width="98" height="98" rx="15.5" fill="white"/>
<rect x="0.609375" y="0.5" width="98" height="98" rx="15.5" stroke="#EDEDED"/>
<g clip-path="url(#clip0_3069_8467)">
<path d="M12.1094 12H87.1094V87H12.1094V12Z" fill="white"/>
<path d="M12.1094 12H37.1094V15.5714H12.1094V12ZM40.6808 12H44.2522V15.5714H40.6808V12ZM51.3951 12H54.9665V15.5714H51.3951V12ZM62.1094 12H87.1094V15.5714H62.1094V12ZM12.1094 15.5714H15.6808V19.1429H12.1094V15.5714ZM33.5379 15.5714H37.1094V19.1429H33.5379V15.5714ZM44.2522 15.5714H51.3951V19.1429H44.2522V15.5714ZM62.1094 15.5714H65.6808V19.1429H62.1094V15.5714ZM83.5379 15.5714H87.1094V19.1429H83.5379V15.5714ZM12.1094 19.1429H15.6808V22.7143H12.1094V19.1429ZM19.2522 19.1429H29.9665V22.7143H19.2522V19.1429ZM33.5379 19.1429H37.1094V22.7143H33.5379V19.1429ZM44.2522 19.1429H47.8237V22.7143H44.2522V19.1429ZM51.3951 19.1429H54.9665V22.7143H51.3951V19.1429ZM62.1094 19.1429H65.6808V22.7143H62.1094V19.1429ZM69.2522 19.1429H79.9665V22.7143H69.2522V19.1429ZM83.5379 19.1429H87.1094V22.7143H83.5379V19.1429ZM12.1094 22.7143H15.6808V26.2857H12.1094V22.7143ZM19.2522 22.7143H29.9665V26.2857H19.2522V22.7143ZM33.5379 22.7143H37.1094V26.2857H33.5379V22.7143ZM51.3951 22.7143H58.5379V26.2857H51.3951V22.7143ZM62.1094 22.7143H65.6808V26.2857H62.1094V22.7143ZM69.2522 22.7143H79.9665V26.2857H69.2522V22.7143ZM83.5379 22.7143H87.1094V26.2857H83.5379V22.7143ZM12.1094 26.2857H15.6808V29.8571H12.1094V26.2857ZM19.2522 26.2857H29.9665V29.8571H19.2522V26.2857ZM33.5379 26.2857H37.1094V29.8571H33.5379V26.2857ZM40.6808 26.2857H47.8237V29.8571H40.6808V26.2857ZM51.3951 26.2857H54.9665V29.8571H51.3951V26.2857ZM62.1094 26.2857H65.6808V29.8571H62.1094V26.2857ZM69.2522 26.2857H79.9665V29.8571H69.2522V26.2857ZM83.5379 26.2857H87.1094V29.8571H83.5379V26.2857ZM12.1094 29.8571H15.6808V33.4286H12.1094V29.8571ZM33.5379 29.8571H37.1094V33.4286H33.5379V29.8571ZM40.6808 29.8571H54.9665V33.4286H40.6808V29.8571ZM62.1094 29.8571H65.6808V33.4286H62.1094V29.8571ZM83.5379 29.8571H87.1094V33.4286H83.5379V29.8571ZM12.1094 33.4286H37.1094V37H12.1094V33.4286ZM40.6808 33.4286H44.2522V37H40.6808V33.4286ZM47.8237 33.4286H51.3951V37H47.8237V33.4286ZM54.9665 33.4286H58.5379V37H54.9665V33.4286ZM62.1094 33.4286H87.1094V37H62.1094V33.4286ZM44.2522 37H47.8237V40.5714H44.2522V37ZM51.3951 37H54.9665V40.5714H51.3951V37ZM15.6808 40.5714H40.6808V44.1429H15.6808V40.5714ZM54.9665 40.5714H58.5379V44.1429H54.9665V40.5714ZM65.6808 40.5714H72.8237V44.1429H65.6808V40.5714ZM83.5379 40.5714H87.1094V44.1429H83.5379V40.5714ZM15.6808 44.1429H19.2522V47.7143H15.6808V44.1429ZM26.3951 44.1429H29.9665V47.7143H26.3951V44.1429ZM37.1094 44.1429H44.2522V47.7143H37.1094V44.1429ZM47.8237 44.1429H72.8237V47.7143H47.8237V44.1429ZM76.3951 44.1429H79.9665V47.7143H76.3951V44.1429ZM83.5379 44.1429H87.1094V47.7143H83.5379V44.1429ZM15.6808 47.7143H29.9665V51.2857H15.6808V47.7143ZM33.5379 47.7143H40.6808V51.2857H33.5379V47.7143ZM44.2522 47.7143H54.9665V51.2857H44.2522V47.7143ZM58.5379 47.7143H62.1094V51.2857H58.5379V47.7143ZM72.8237 47.7143H83.5379V51.2857H72.8237V47.7143ZM12.1094 51.2857H15.6808V54.8571H12.1094V51.2857ZM19.2522 51.2857H22.8237V54.8571H19.2522V51.2857ZM26.3951 51.2857H33.5379V54.8571H26.3951V51.2857ZM47.8237 51.2857H54.9665V54.8571H47.8237V51.2857ZM69.2522 51.2857H87.1094V54.8571H69.2522V51.2857ZM19.2522 54.8571H29.9665V58.4286H19.2522V54.8571ZM33.5379 54.8571H37.1094V58.4286H33.5379V54.8571ZM40.6808 54.8571H58.5379V58.4286H40.6808V54.8571ZM69.2522 54.8571H76.3951V58.4286H69.2522V54.8571ZM79.9665 54.8571H83.5379V58.4286H79.9665V54.8571ZM40.6808 58.4286H44.2522V62H40.6808V58.4286ZM51.3951 58.4286H87.1094V62H51.3951V58.4286ZM12.1094 62H37.1094V65.5714H12.1094V62ZM40.6808 62H58.5379V65.5714H40.6808V62ZM62.1094 62H65.6808V65.5714H62.1094V62ZM79.9665 62H83.5379V65.5714H79.9665V62ZM12.1094 65.5714H15.6808V69.1429H12.1094V65.5714ZM33.5379 65.5714H37.1094V69.1429H33.5379V65.5714ZM40.6808 65.5714H44.2522V69.1429H40.6808V65.5714ZM47.8237 65.5714H51.3951V69.1429H47.8237V65.5714ZM58.5379 65.5714H65.6808V69.1429H58.5379V65.5714ZM69.2522 65.5714H79.9665V69.1429H69.2522V65.5714ZM12.1094 69.1429H15.6808V72.7143H12.1094V69.1429ZM19.2522 69.1429H29.9665V72.7143H19.2522V69.1429ZM33.5379 69.1429H37.1094V72.7143H33.5379V69.1429ZM40.6808 69.1429H51.3951V72.7143H40.6808V69.1429ZM65.6808 69.1429H69.2522V72.7143H65.6808V69.1429ZM83.5379 69.1429H87.1094V72.7143H83.5379V69.1429ZM12.1094 72.7143H15.6808V76.2857H12.1094V72.7143ZM19.2522 72.7143H29.9665V76.2857H19.2522V72.7143ZM33.5379 72.7143H37.1094V76.2857H33.5379V72.7143ZM40.6808 72.7143H44.2522V76.2857H40.6808V72.7143ZM54.9665 72.7143H58.5379V76.2857H54.9665V72.7143ZM65.6808 72.7143H79.9665V76.2857H65.6808V72.7143ZM12.1094 76.2857H15.6808V79.8571H12.1094V76.2857ZM19.2522 76.2857H29.9665V79.8571H19.2522V76.2857ZM33.5379 76.2857H37.1094V79.8571H33.5379V76.2857ZM40.6808 76.2857H44.2522V79.8571H40.6808V76.2857ZM47.8237 76.2857H54.9665V79.8571H47.8237V76.2857ZM58.5379 76.2857H62.1094V79.8571H58.5379V76.2857ZM72.8237 76.2857H79.9665V79.8571H72.8237V76.2857ZM12.1094 79.8571H15.6808V83.4286H12.1094V79.8571ZM33.5379 79.8571H37.1094V83.4286H33.5379V79.8571ZM40.6808 79.8571H44.2522V83.4286H40.6808V79.8571ZM65.6808 79.8571H72.8237V83.4286H65.6808V79.8571ZM76.3951 79.8571H79.9665V83.4286H76.3951V79.8571ZM12.1094 83.4286H37.1094V87H12.1094V83.4286ZM44.2522 83.4286H47.8237V87H44.2522V83.4286ZM51.3951 83.4286H54.9665V87H51.3951V83.4286ZM58.5379 83.4286H62.1094V87H58.5379V83.4286ZM69.2522 83.4286H72.8237V87H69.2522V83.4286ZM79.9665 83.4286H83.5379V87H79.9665V83.4286Z" fill="#0D2226"/>
<rect x="34.8594" y="34.75" width="29.5" height="29.5" rx="8.75" fill="#004B4D"/>
<rect x="34.8594" y="34.75" width="29.5" height="29.5" rx="8.75" stroke="#CBF5E5" stroke-width="1.5"/>
<rect x="37.6094" y="37.5" width="24" height="24" rx="7.2" fill="#B4DCDD"/>
<path d="M52.7499 51.1174H46.8707C44.4284 51.1174 42.454 49.1499 42.454 46.7161C42.454 44.2822 44.4284 42.3147 46.8707 42.3147H52.7499C55.1923 42.3147 57.1666 44.2968 57.1666 46.7161C57.1666 49.1353 55.1777 51.1174 52.7499 51.1174ZM46.5929 43.4661C44.8233 43.4661 43.4339 43.2038 43.624 46.6578C43.624 46.6723 43.624 46.6869 43.624 46.7161C43.624 48.4941 45.0865 49.9369 46.8707 49.9369H52.7499C54.5342 49.9369 55.982 48.4941 55.982 46.7161C55.982 44.938 54.5342 43.4952 52.7499 43.4952H46.6367L46.5929 43.4661Z" fill="#004446"/>
<path d="M48.1285 56.9615H47.0024C45.3205 56.9615 43.8288 55.8248 43.39 54.2071C42.7319 51.8169 42.4102 49.3394 42.4102 46.8472V46.0311C42.4102 43.9762 44.092 42.3002 46.1541 42.3002C47.836 42.3002 49.3277 43.4369 49.7665 45.0546L51.7408 52.2542C52.0479 53.3909 51.8139 54.5714 51.112 55.5041C50.3807 56.4223 49.2985 56.9615 48.1285 56.9615ZM44.5308 53.901C44.8379 55.0086 45.847 55.781 47.0024 55.781H48.1285C48.9328 55.781 49.6787 55.4167 50.1613 54.7754C50.644 54.1342 50.8048 53.3326 50.6001 52.5602L48.6257 45.3607C48.3186 44.2531 47.3095 43.4807 46.1541 43.4807C44.7501 43.4807 43.5948 44.6174 43.5948 46.0311V46.8472C43.5948 49.2374 43.9019 51.5983 44.5308 53.901Z" fill="#004446"/>
<path d="M43.0537 46.7015C43.3608 46.7015 43.624 46.4537 43.6094 46.1331C43.6094 45.9728 43.6094 45.8271 43.6094 45.725C43.7264 43.262 44.9988 43.4807 46.5782 43.4807L46.6367 43.4952H52.7499C54.3587 43.4952 55.7042 44.6757 55.9382 46.206C55.982 46.4829 56.216 46.6869 56.4939 46.6869H56.5524C56.9034 46.6869 57.1667 46.3809 57.1082 46.0311C56.7864 43.9325 54.9583 42.3147 52.7499 42.3147H46.8707C44.6624 42.3147 42.8343 43.9325 42.5125 46.0457C42.454 46.3954 42.7173 46.7015 43.0537 46.7015Z" fill="#004446"/>
<path d="M47.134 56.3349C47.134 56.0288 46.9 55.781 46.6075 55.7519C46.5344 55.7373 46.4612 55.7373 46.4174 55.7228C45.5253 55.5041 44.794 54.8192 44.5454 53.9156C43.9165 51.6129 43.5948 49.2519 43.6094 46.8618V46.104C43.6094 44.9235 44.3845 43.8742 45.5399 43.5827C45.8616 43.4952 46.1687 43.4807 46.4759 43.5244C46.8561 43.5681 47.1486 43.3203 47.1486 42.9414C47.1486 42.6354 46.9292 42.3876 46.6221 42.3585C46.4759 42.3439 46.315 42.3293 46.1687 42.3293C44.092 42.3002 42.4102 43.9762 42.4102 46.0165V46.8327C42.4102 49.3248 42.7319 51.8024 43.39 54.2071C43.7703 55.577 44.8818 56.5972 46.2419 56.8741C46.3004 56.8887 46.3735 56.9032 46.4612 56.9032C46.8269 56.947 47.134 56.6846 47.134 56.3349Z" fill="#004446"/>
<path d="M55.8242 53.9146C55.8242 53.249 56.2543 52.9162 57.1145 52.9162C57.3863 52.9162 57.6066 53.1366 57.6066 53.4084V53.818C57.6066 54.3102 57.2076 54.7092 56.7154 54.7092H56.6187C56.1799 54.7092 55.8242 54.3534 55.8242 53.9146ZM53.3633 53.8935C53.3633 53.3538 53.8009 52.9162 54.3406 52.9162C54.8804 52.9162 55.318 53.3538 55.318 53.8935V55.5248C55.318 56.0646 54.8804 56.5021 54.3406 56.5021C53.8009 56.5021 53.3633 56.0646 53.3633 55.5248V53.8935Z" fill="#004B4D"/>
</g>
<defs>
<clipPath id="clip0_3069_8467">
<rect width="75" height="75" fill="white" transform="translate(12.1094 12)"/>
</clipPath>
</defs>
</svg>
