<svg width="17" height="16" viewBox="0 0 17 16" fill="none" xmlns="http://www.w3.org/2000/svg">
<path opacity="0.4" d="M2.30469 6.49999C2.03135 6.49999 1.80469 6.27333 1.80469 5.99999V4.33333C1.80469 2.39999 3.37802 0.833328 5.30469 0.833328H6.97135C7.24469 0.833328 7.47135 1.05999 7.47135 1.33333C7.47135 1.60666 7.24469 1.83333 6.97135 1.83333H5.30469C3.92469 1.83333 2.80469 2.95333 2.80469 4.33333V5.99999C2.80469 6.27333 2.57802 6.49999 2.30469 6.49999Z" fill="#004B4D"/>
<path d="M15.6393 6.49999C15.366 6.49999 15.1393 6.27333 15.1393 5.99999V4.33333C15.1393 2.95333 14.0193 1.83333 12.6393 1.83333H10.9727C10.6993 1.83333 10.4727 1.60666 10.4727 1.33333C10.4727 1.05999 10.6993 0.833328 10.9727 0.833328H12.6393C14.566 0.833328 16.1393 2.39999 16.1393 4.33333V5.99999C16.1393 6.27333 15.9127 6.49999 15.6393 6.49999Z" fill="#004B4D"/>
<path opacity="0.4" d="M12.6406 15.1667H11.6406C11.3673 15.1667 11.1406 14.94 11.1406 14.6667C11.1406 14.3933 11.3673 14.1667 11.6406 14.1667H12.6406C14.0206 14.1667 15.1406 13.0467 15.1406 11.6667V10.6667C15.1406 10.3933 15.3673 10.1667 15.6406 10.1667C15.914 10.1667 16.1406 10.3933 16.1406 10.6667V11.6667C16.1406 13.6 14.5673 15.1667 12.6406 15.1667Z" fill="#004B4D"/>
<path d="M6.97135 15.1667H5.30469C3.37802 15.1667 1.80469 13.6 1.80469 11.6667V10C1.80469 9.72667 2.03135 9.5 2.30469 9.5C2.57802 9.5 2.80469 9.72667 2.80469 10V11.6667C2.80469 13.0467 3.92469 14.1667 5.30469 14.1667H6.97135C7.24469 14.1667 7.47135 14.3933 7.47135 14.6667C7.47135 14.94 7.24469 15.1667 6.97135 15.1667Z" fill="#336F71"/>
<path d="M6.63875 7.58667C7.69914 7.58667 8.55875 6.72706 8.55875 5.66667C8.55875 4.60629 7.69914 3.74667 6.63875 3.74667C5.57836 3.74667 4.71875 4.60629 4.71875 5.66667C4.71875 6.72706 5.57836 7.58667 6.63875 7.58667Z" fill="#336F71"/>
<path opacity="0.4" d="M5.97208 12.2533C6.66428 12.2533 7.22542 11.6922 7.22542 11C7.22542 10.3078 6.66428 9.74667 5.97208 9.74667C5.27989 9.74667 4.71875 10.3078 4.71875 11C4.71875 11.6922 5.27989 12.2533 5.97208 12.2533Z" fill="#336F71"/>
<path opacity="0.4" d="M11.9721 6.25334C12.6643 6.25334 13.2254 5.6922 13.2254 5.00001C13.2254 4.30781 12.6643 3.74667 11.9721 3.74667C11.2799 3.74667 10.7188 4.30781 10.7188 5.00001C10.7188 5.6922 11.2799 6.25334 11.9721 6.25334Z" fill="#336F71"/>
<path d="M11.3067 12.2533C12.3671 12.2533 13.2267 11.3937 13.2267 10.3333C13.2267 9.27294 12.3671 8.41333 11.3067 8.41333C10.2463 8.41333 9.38672 9.27294 9.38672 10.3333C9.38672 11.3937 10.2463 12.2533 11.3067 12.2533Z" fill="#336F71"/>
</svg>
