<svg width="122" height="65" viewBox="0 0 122 65" fill="none" xmlns="http://www.w3.org/2000/svg">
<g clip-path="url(#clip0_3069_8552)">
<rect x="9.79297" y="2.27344" width="112" height="40" rx="20" transform="rotate(11.0749 9.79297 2.27344)" fill="#CDE8E8"/>
<path d="M35.5901 36.0583C31.3606 35.2305 29.7253 32.7146 30.2791 29.6539L32.7208 30.1318C32.3676 32.1679 33.2973 33.6628 36.0007 34.1919C38.2244 34.6272 39.8648 34.1107 40.1934 32.432C40.5647 30.5353 39.5988 29.803 36.5836 28.6695C33.0666 27.3246 31.4008 25.8894 31.9342 23.1642C32.4804 20.3737 35.0237 19.0605 38.6645 19.7732C42.3054 20.4858 44.0792 22.7572 43.5765 25.5563L41.1566 25.0826C41.4625 23.1731 40.2682 21.9886 38.2189 21.5874C36.1259 21.1778 34.7434 21.8805 34.4617 23.3194C34.1161 25.0853 35.2469 25.6688 38.1924 26.8113C40.9151 27.8196 43.4165 29.0336 42.6996 32.6962C42.1662 35.4214 39.6451 36.852 35.5901 36.0583ZM43.5017 37.4032L45.7591 25.8703L47.8956 26.2885L47.5348 28.5947L47.6656 28.6203C48.6397 27.1132 50.2843 26.5749 51.963 26.9035C53.6635 27.2364 54.9573 28.2593 55.1619 30.3366L55.3363 30.3708C56.3185 28.7068 58.0674 28.0984 59.9205 28.4611C62.2096 28.9092 63.6498 30.5719 62.9585 34.1037L61.6186 40.9493L59.3949 40.5141L60.6452 34.1263C61.1061 31.7717 60.517 30.502 58.7075 30.1478C56.8108 29.7765 55.3045 31.1115 54.9162 33.0955L53.6829 39.396L51.4374 38.9565L52.6877 32.5687C53.1486 30.2142 52.5596 28.9444 50.7718 28.5945C48.8533 28.219 47.347 29.554 46.9587 31.5379L45.7254 37.8385L43.5017 37.4032ZM67.6568 42.335C64.8444 41.7845 63.3616 39.2985 64.117 35.4397C64.8723 31.5808 67.1787 29.8592 69.991 30.4097C71.9313 30.7894 73.1782 32.0522 73.4331 33.6413L73.5639 33.6669L74.0949 31.4167L76.2532 31.8391L73.9958 43.372L71.7502 42.9325L72.1983 40.6434L72.0675 40.6178C71.2323 41.9936 69.5971 42.7148 67.6568 42.335ZM68.8044 40.6355C70.9409 41.0537 72.3813 39.5926 72.7313 37.8049L72.9873 36.4968C73.333 34.7309 72.5539 32.8128 70.4174 32.3946C68.4989 32.0191 66.9613 33.1668 66.4279 35.892C65.8987 38.5954 66.8858 40.26 68.8044 40.6355ZM76.2692 43.817L78.5267 32.2841L80.5324 32.6767L80.2403 34.7474L80.3493 34.7687C81.1409 33.3844 82.5898 32.921 84.1159 33.2197C84.3775 33.2709 84.5912 33.3354 84.7832 33.3956L84.3693 35.5103C84.1991 35.4544 83.9375 35.4032 83.6759 35.352C81.6266 34.9508 80.262 35.7929 79.7817 37.6683L78.493 44.2523L76.2692 43.817ZM87.3757 45.991C85.4789 45.6197 85.0567 44.6543 85.3597 43.1064L86.7893 35.8029L84.6091 35.3762L84.9676 33.5449L87.1477 33.9716L87.8006 30.636L90.0974 30.8139L89.3933 34.4111L91.944 34.9104L91.5856 36.7417L89.0348 36.2424L87.6863 43.1317C87.537 43.8947 87.7602 44.1421 88.4796 44.283L90.0493 44.5902L89.6866 46.4433L87.3757 45.991Z" fill="#272727"/>
</g>
<rect x="7.81976" y="-0.660236" width="117" height="45" rx="22.5" transform="rotate(11.0749 7.81976 -0.660236)" stroke="#8AACAD" stroke-width="5"/>
<defs>
<clipPath id="clip0_3069_8552">
<rect x="9.79297" y="2.27344" width="112" height="40" rx="20" transform="rotate(11.0749 9.79297 2.27344)" fill="white"/>
</clipPath>
</defs>
</svg>
