<svg width="53" height="52" viewBox="0 0 53 52" fill="none" xmlns="http://www.w3.org/2000/svg">
<rect x="1.73828" y="51.25" width="50.5" height="50.5" rx="25.25" transform="rotate(-90 1.73828 51.25)" fill="#F1F1F1"/>
<rect x="1.73828" y="51.25" width="50.5" height="50.5" rx="25.25" transform="rotate(-90 1.73828 51.25)" stroke="url(#paint0_linear_4079_11009)" stroke-width="1.5"/>
<path opacity="0.8" d="M27.8875 16.5201L27.8575 16.5901L24.9575 23.3201H22.1075C21.4275 23.3201 20.7875 23.4501 20.1875 23.7101L21.9375 19.5301L21.9775 19.4401L22.0375 19.2801C22.0675 19.2101 22.0875 19.1501 22.1175 19.1001C23.4275 16.0701 24.9075 15.3801 27.8875 16.5201Z" fill="#3C444F"/>
<path d="M33.277 23.5195C32.827 23.3895 32.357 23.3195 31.867 23.3195H24.957L27.857 16.5895L27.887 16.5195C28.027 16.5695 28.177 16.6395 28.327 16.6895L30.537 17.6195C31.767 18.1295 32.627 18.6595 33.157 19.2995C33.247 19.4195 33.327 19.5295 33.407 19.6595C33.497 19.7995 33.567 19.9395 33.607 20.0895C33.647 20.1795 33.677 20.2595 33.697 20.3495C33.957 21.1995 33.797 22.2295 33.277 23.5195Z" fill="#3C444F"/>
<path opacity="0.4" d="M36.7466 28.2003V30.1503C36.7466 30.3503 36.7366 30.5503 36.7266 30.7403C36.5366 34.2403 34.5866 36.0003 30.8866 36.0003H23.0866C22.8366 36.0003 22.6066 35.9803 22.3766 35.9503C19.1966 35.7403 17.4966 34.0403 17.2766 30.8603C17.2466 30.6203 17.2266 30.3903 17.2266 30.1503V28.2003C17.2266 26.1903 18.4466 24.4603 20.1866 23.7103C20.7866 23.4503 21.4266 23.3203 22.1066 23.3203H31.8666C32.3566 23.3203 32.8266 23.3903 33.2766 23.5203C35.2766 24.1303 36.7466 25.9903 36.7466 28.2003Z" fill="#3C444F"/>
<path opacity="0.6" d="M21.9366 19.5303L20.1866 23.7103C18.4466 24.4603 17.2266 26.1903 17.2266 28.2003V25.2703C17.2266 22.4303 19.2466 20.0603 21.9366 19.5303Z" fill="#3C444F"/>
<path opacity="0.6" d="M36.7473 25.2701V28.2001C36.7473 25.9901 35.2773 24.1301 33.2773 23.5201C33.7973 22.2301 33.9573 21.2001 33.6973 20.3501C33.6773 20.2601 33.6473 20.1801 33.6073 20.0901C35.4773 21.0601 36.7473 23.0301 36.7473 25.2701Z" fill="#3C444F"/>
<defs>
<linearGradient id="paint0_linear_4079_11009" x1="26.9883" y1="52" x2="26.9883" y2="104" gradientUnits="userSpaceOnUse">
<stop stop-color="#F6F6F6"/>
<stop offset="1" stop-color="#E6E6E6"/>
</linearGradient>
</defs>
</svg>
